<?xml version="1.0" encoding="UTF-8"?>
<svg width="420" height="120" viewBox="0 0 420 120" fill="none" xmlns="http://www.w3.org/2000/svg">
  <!-- Modern tech bulb with network filaments -->
  <g>
    <!-- Bulb outline with subtle glow -->
    <ellipse cx="100" cy="70" rx="32" ry="38" fill="#fff" stroke="#F87060" stroke-width="5" filter="url(#glow)"/>
    <!-- Bulb base, more geometric -->
    <rect x="85" y="100" width="30" height="12" rx="4" fill="#F87060"/>
    <rect x="90" y="112" width="20" height="5" rx="2" fill="#F87060" opacity="0.7"/>
    <!-- Modern network filaments -->
    <g stroke="#F87060" stroke-width="2.5" stroke-linecap="round">
      <polyline points="100,70 100,48 120,40" fill="none"/>
      <circle cx="120" cy="40" r="4" fill="#fff" stroke="#F87060" stroke-width="2"/>
      <polyline points="100,70 120,60 130,50" fill="none"/>
      <circle cx="130" cy="50" r="3.2" fill="#fff" stroke="#F87060" stroke-width="2"/>
      <polyline points="100,70 80,60 70,50" fill="none"/>
      <circle cx="70" cy="50" r="3.2" fill="#fff" stroke="#F87060" stroke-width="2"/>
      <polyline points="100,70 110,90 120,100" fill="none"/>
      <circle cx="120" cy="100" r="3.2" fill="#fff" stroke="#F87060" stroke-width="2"/>
      <polyline points="100,70 90,90 80,100" fill="none"/>
      <circle cx="80" cy="100" r="3.2" fill="#fff" stroke="#F87060" stroke-width="2"/>
    </g>
  </g>
  <!-- Logo text and slogans, shifted further right for full visibility -->
  <text x="185" y="54" text-anchor="start" fill="#F87060" font-size="36" font-family="Segoe UI, Arial, sans-serif" font-weight="bold">Lino.AI</text>
  <text x="185" y="84" text-anchor="start" fill="#F87060" font-size="16" font-family="Segoe UI, Arial, sans-serif">AI FOR GOOD</text>
  <text x="185" y="110" text-anchor="start" fill="#F87060" font-size="13" font-family="Segoe UI, Arial, sans-serif">Leading Intelligence for a New Order</text>
  <defs>
    <filter id="glow" x="0" y="0" width="200%" height="200%">
      <feGaussianBlur stdDeviation="3" result="coloredBlur"/>
      <feMerge>
        <feMergeNode in="coloredBlur"/>
        <feMergeNode in="SourceGraphic"/>
      </feMerge>
    </filter>
  </defs>
</svg> 